<svg id="logo-playon" xmlns="http://www.w3.org/2000/svg" width="37.69" height="8" viewBox="0 0 37.69 8">
  <path id="Path_14143" data-name="Path 14143" d="M0,8.179V.41H3.419C4.832.41,5.434,1.571,5.434,3S4.869,5.567,3.408,5.567H1.958V8.179ZM2.868,1.961h-.91V4.024h.91c.458,0,.608-.393.608-1.026S3.326,1.95,2.868,1.95" transform="translate(0 -0.294)" fill="#fff"/>
  <path id="Path_14144" data-name="Path 14144" d="M21.35,8.179V.41h1.956V6.545H26.38V8.179Z" transform="translate(-15.317 -0.294)" fill="#fff"/>
  <path id="Path_14145" data-name="Path 14145" d="M46.345,8.179l-.382-1.413H43.909l-.393,1.413H41.51L43.686.41H46.17l2.261,7.769ZM44.262,5.2H45.6l-.492-2.151c-.057-.243-.15-.848-.184-1.108h-.023c-.034.266-.116.865-.172,1.108Z" transform="translate(-29.779 -0.294)" fill="#fff"/>
  <path id="Path_14146" data-name="Path 14146" d="M64.27,8.179V5.231L61.84.41h2.153L64.949,2.5a8.3,8.3,0,0,1,.311.876h.017a7.708,7.708,0,0,1,.311-.876L66.548.41h2.119l-2.43,4.835V8.179Z" transform="translate(-44.364 -0.294)" fill="#fff"/>
  <path id="Path_14147" data-name="Path 14147" d="M88.392,8C86,8,85.1,6.746,85.1,4.007S86,0,88.392,0s3.27,1.266,3.27,4.007S90.775,8,88.392,8m0-1.67c.848,0,1.232-.413,1.232-2.323S89.243,1.67,88.392,1.67s-1.232.435-1.232,2.337.367,2.323,1.232,2.323" transform="translate(-61.051 0)" fill="#00c853"/>
  <path id="Path_14148" data-name="Path 14148" d="M115.261,4.508a10.827,10.827,0,0,1,.424,1.255h.023c-.034-.472-.057-.933-.057-1.359V.41H117.4V8.179h-2.365L113.252,4.14a8.886,8.886,0,0,1-.4-1.232h-.023c.045.447.071.989.071,1.413V8.176H111.11V.41h2.416Z" transform="translate(-79.711 -0.294)" fill="#00c853"/>
</svg>
